<svg id="Capa_1" enable-background="new 0 0 512 512" height="512" viewBox="0 0 512 512" width="512" xmlns="http://www.w3.org/2000/svg"><path d="m497 495.933h-482c-5.274 0-10.16-2.77-12.87-7.294-2.709-4.525-2.843-10.14-.353-14.789l241-449.866c2.611-4.874 7.692-7.917 13.222-7.917 5.529 0 10.611 3.042 13.223 7.917l241 449.866c2.49 4.649 2.356 10.264-.354 14.789-2.708 4.525-7.595 7.294-12.868 7.294z" fill="#c1da4b"/><path d="m509.869 488.639c2.71-4.525 2.844-10.14.354-14.789l-241-449.866c-2.611-4.874-7.693-7.917-13.223-7.917v479.866h241c5.273 0 10.16-2.769 12.869-7.294z" fill="#83b904"/><path d="m412.926 293.593-55.431-55.439c-55.965-55.955-147.025-55.955-202.99 0-.001.001-.002.001-.002.002.002-.002-55.428 55.437-55.429 55.437-5.857 5.858-5.857 15.355 0 21.213 0 0 55.433 55.439 55.431 55.439h.003c55.964 55.952 147.023 55.952 202.987-.002h.003c-.003 0 55.428-55.436 55.428-55.436 2.813-2.813 4.394-6.628 4.394-10.607s-1.581-7.793-4.394-10.607z" fill="#f3eee9"/><path d="m357.495 370.243h.003c-.003 0 55.428-55.436 55.428-55.436 2.813-2.813 4.394-6.628 4.394-10.607s-1.58-7.793-4.394-10.607l-55.431-55.439c-27.982-27.978-64.739-41.966-101.495-41.966v216.021c36.756.001 73.513-13.988 101.495-41.966z" fill="#e9dfda"/><path d="m256 351.334c-25.989 0-47.133-21.144-47.133-47.133s21.144-47.133 47.133-47.133 47.134 21.144 47.134 47.133-21.145 47.133-47.134 47.133z" fill="#5a4650"/><path d="m303.134 304.2c0-25.989-21.145-47.133-47.134-47.133v94.267c25.989 0 47.134-21.144 47.134-47.134z" fill="#002323"/></svg>